<svg width="314" height="36" viewBox="0 0 314 36" fill="none" xmlns="http://www.w3.org/2000/svg">
<path d="M65.549 17.821C65.549 20.5083 64.6113 22.6157 62.736 24.143C60.8607 25.6703 58.212 26.492 54.79 26.608V28.754H52.093V26.608C48.671 26.4727 46.0127 25.6413 44.118 24.114C42.2427 22.5867 41.305 20.489 41.305 17.821C41.305 15.1337 42.2427 13.0263 44.118 11.499C46.0127 9.97167 48.671 9.14033 52.093 9.005V6.946H54.79V9.005C58.1927 9.14033 60.8317 9.98133 62.707 11.528C64.6017 13.0553 65.549 15.153 65.549 17.821ZM54.79 24.346C57.3807 24.1913 59.3527 23.563 60.706 22.461C62.0787 21.3397 62.765 19.7833 62.765 17.792C62.765 15.8393 62.069 14.312 60.677 13.21C59.3043 12.0887 57.342 11.4507 54.79 11.296V24.346ZM44.118 17.821C44.118 19.793 44.8043 21.3397 46.177 22.461C47.569 23.563 49.541 24.1913 52.093 24.346V11.296C49.5023 11.4507 47.5207 12.079 46.148 13.181C44.7947 14.283 44.118 15.8297 44.118 17.821ZM69.5447 12.63H72.3287V23.824L81.7537 12.63H84.2767V28H81.4927V16.806L72.0967 28H69.5447V12.63ZM102.875 12.63V28H100.091V15.066H93.4794L93.3054 18.488C93.2087 20.5567 93.0251 22.287 92.7544 23.679C92.4837 25.0517 92.0391 26.1537 91.4204 26.985C90.8017 27.8163 89.9414 28.232 88.8394 28.232C88.3367 28.232 87.7664 28.145 87.1284 27.971L87.3024 25.622C87.5537 25.68 87.7857 25.709 87.9984 25.709C88.7717 25.709 89.3517 25.3707 89.7384 24.694C90.1251 24.0173 90.3764 23.215 90.4924 22.287C90.6084 21.359 90.7147 20.0347 90.8114 18.314L91.0724 12.63H102.875ZM113.74 12.485C115.866 12.485 117.49 13.007 118.612 14.051C119.752 15.095 120.323 16.6513 120.323 18.72V28H117.684V25.97C117.22 26.6853 116.553 27.2363 115.683 27.623C114.832 27.9903 113.817 28.174 112.638 28.174C110.917 28.174 109.535 27.7583 108.491 26.927C107.466 26.0957 106.954 25.0033 106.954 23.65C106.954 22.2967 107.447 21.214 108.433 20.402C109.419 19.5707 110.985 19.155 113.131 19.155H117.539V18.604C117.539 17.4053 117.191 16.487 116.495 15.849C115.799 15.211 114.774 14.892 113.421 14.892C112.512 14.892 111.623 15.0467 110.753 15.356C109.883 15.646 109.148 16.0423 108.549 16.545L107.389 14.457C108.181 13.819 109.129 13.3357 110.231 13.007C111.333 12.659 112.502 12.485 113.74 12.485ZM113.102 26.028C114.165 26.028 115.083 25.796 115.857 25.332C116.63 24.8487 117.191 24.172 117.539 23.302V21.156H113.247C110.888 21.156 109.709 21.9487 109.709 23.534C109.709 24.3073 110.008 24.9163 110.608 25.361C111.207 25.8057 112.038 26.028 113.102 26.028ZM136.791 15.066H131.165V28H128.381V15.066H122.755V12.63H136.791V15.066ZM145.541 28.174C144.013 28.174 142.641 27.8357 141.423 27.159C140.205 26.4823 139.248 25.5543 138.552 24.375C137.875 23.1763 137.537 21.823 137.537 20.315C137.537 18.807 137.875 17.4633 138.552 16.284C139.248 15.0853 140.205 14.1573 141.423 13.5C142.641 12.8233 144.013 12.485 145.541 12.485C147.068 12.485 148.431 12.8233 149.63 13.5C150.848 14.1573 151.795 15.0853 152.472 16.284C153.168 17.4633 153.516 18.807 153.516 20.315C153.516 21.823 153.168 23.1763 152.472 24.375C151.795 25.5543 150.848 26.4823 149.63 27.159C148.431 27.8357 147.068 28.174 145.541 28.174ZM145.541 25.738C146.527 25.738 147.406 25.5157 148.18 25.071C148.972 24.607 149.591 23.969 150.036 23.157C150.48 22.3257 150.703 21.3783 150.703 20.315C150.703 19.2517 150.48 18.314 150.036 17.502C149.591 16.6707 148.972 16.0327 148.18 15.588C147.406 15.1433 146.527 14.921 145.541 14.921C144.555 14.921 143.665 15.1433 142.873 15.588C142.099 16.0327 141.481 16.6707 141.017 17.502C140.572 18.314 140.35 19.2517 140.35 20.315C140.35 21.3783 140.572 22.3257 141.017 23.157C141.481 23.969 142.099 24.607 142.873 25.071C143.665 25.5157 144.555 25.738 145.541 25.738ZM168.005 20.025C169.996 20.5277 170.992 21.7747 170.992 23.766C170.992 25.1193 170.48 26.1633 169.455 26.898C168.45 27.6327 166.942 28 164.931 28H157.536V12.63H164.67C166.487 12.63 167.908 12.978 168.933 13.674C169.958 14.3507 170.47 15.3173 170.47 16.574C170.47 17.386 170.248 18.0917 169.803 18.691C169.378 19.271 168.778 19.7157 168.005 20.025ZM160.262 19.242H164.438C165.501 19.242 166.304 19.0487 166.845 18.662C167.406 18.2753 167.686 17.7147 167.686 16.98C167.686 15.5107 166.603 14.776 164.438 14.776H160.262V19.242ZM164.728 25.854C165.888 25.854 166.758 25.6703 167.338 25.303C167.918 24.9357 168.208 24.3653 168.208 23.592C168.208 22.7993 167.937 22.2097 167.396 21.823C166.874 21.4363 166.043 21.243 164.902 21.243H160.262V25.854H164.728ZM180.83 12.485C182.957 12.485 184.581 13.007 185.702 14.051C186.843 15.095 187.413 16.6513 187.413 18.72V28H184.774V25.97C184.31 26.6853 183.643 27.2363 182.773 27.623C181.923 27.9903 180.908 28.174 179.728 28.174C178.008 28.174 176.625 27.7583 175.581 26.927C174.557 26.0957 174.044 25.0033 174.044 23.65C174.044 22.2967 174.537 21.214 175.523 20.402C176.509 19.5707 178.075 19.155 180.221 19.155H184.629V18.604C184.629 17.4053 184.281 16.487 183.585 15.849C182.889 15.211 181.865 14.892 180.511 14.892C179.603 14.892 178.713 15.0467 177.843 15.356C176.973 15.646 176.239 16.0423 175.639 16.545L174.479 14.457C175.272 13.819 176.219 13.3357 177.321 13.007C178.423 12.659 179.593 12.485 180.83 12.485ZM180.192 26.028C181.256 26.028 182.174 25.796 182.947 25.332C183.721 24.8487 184.281 24.172 184.629 23.302V21.156H180.337C177.979 21.156 176.799 21.9487 176.799 23.534C176.799 24.3073 177.099 24.9163 177.698 25.361C178.298 25.8057 179.129 26.028 180.192 26.028ZM220.39 25.477V32.437H217.693V28H200.989L200.96 32.437H198.263L198.292 25.477H199.278C200.554 25.3997 201.453 24.3943 201.975 22.461C202.497 20.5083 202.816 17.763 202.932 14.225L203.135 7.7H217.403V25.477H220.39ZM205.484 14.486C205.387 17.3473 205.155 19.7157 204.788 21.591C204.44 23.4663 203.869 24.7617 203.077 25.477H214.532V10.223H205.629L205.484 14.486ZM223.89 12.63H226.674V23.824L236.099 12.63H238.622V28H235.838V16.806L226.442 28H223.89V12.63ZM252.094 19.996C253.119 20.2667 253.912 20.7017 254.472 21.301C255.033 21.9003 255.313 22.6447 255.313 23.534C255.313 24.4427 255.004 25.2547 254.385 25.97C253.767 26.666 252.906 27.217 251.804 27.623C250.722 28.0097 249.504 28.203 248.15 28.203C247.01 28.203 245.888 28.058 244.786 27.768C243.704 27.4587 242.737 27.0237 241.886 26.463L242.727 24.346C243.462 24.81 244.303 25.1773 245.25 25.448C246.198 25.6993 247.155 25.825 248.121 25.825C249.436 25.825 250.48 25.6027 251.253 25.158C252.046 24.694 252.442 24.0753 252.442 23.302C252.442 22.5867 252.123 22.0357 251.485 21.649C250.867 21.2623 249.987 21.069 248.846 21.069H246.033V19.068H248.643C249.687 19.068 250.509 18.8843 251.108 18.517C251.708 18.1497 252.007 17.647 252.007 17.009C252.007 16.313 251.65 15.7717 250.934 15.385C250.238 14.9983 249.291 14.805 248.092 14.805C246.565 14.805 244.951 15.2013 243.249 15.994L242.495 13.848C244.371 12.9007 246.333 12.427 248.382 12.427C249.62 12.427 250.731 12.601 251.717 12.949C252.703 13.297 253.477 13.79 254.037 14.428C254.598 15.066 254.878 15.791 254.878 16.603C254.878 17.357 254.627 18.0337 254.124 18.633C253.622 19.2323 252.945 19.6867 252.094 19.996ZM265.027 12.485C267.153 12.485 268.777 13.007 269.899 14.051C271.039 15.095 271.61 16.6513 271.61 18.72V28H268.971V25.97C268.507 26.6853 267.84 27.2363 266.97 27.623C266.119 27.9903 265.104 28.174 263.925 28.174C262.204 28.174 260.822 27.7583 259.778 26.927C258.753 26.0957 258.241 25.0033 258.241 23.65C258.241 22.2967 258.734 21.214 259.72 20.402C260.706 19.5707 262.272 19.155 264.418 19.155H268.826V18.604C268.826 17.4053 268.478 16.487 267.782 15.849C267.086 15.211 266.061 14.892 264.708 14.892C263.799 14.892 262.91 15.0467 262.04 15.356C261.17 15.646 260.435 16.0423 259.836 16.545L258.676 14.457C259.468 13.819 260.416 13.3357 261.518 13.007C262.62 12.659 263.789 12.485 265.027 12.485ZM264.389 26.028C265.452 26.028 266.37 25.796 267.144 25.332C267.917 24.8487 268.478 24.172 268.826 23.302V21.156H264.534C262.175 21.156 260.996 21.9487 260.996 23.534C260.996 24.3073 261.295 24.9163 261.895 25.361C262.494 25.8057 263.325 26.028 264.389 26.028ZM276.623 12.63H279.407V23.824L288.832 12.63H291.355V28H288.571V16.806L279.175 28H276.623V12.63ZM283.815 10.629C282.384 10.629 281.272 10.2907 280.48 9.614C279.687 8.918 279.281 7.92233 279.262 6.627H281.147C281.166 7.34233 281.408 7.92233 281.872 8.367C282.355 8.79233 282.993 9.005 283.786 9.005C284.578 9.005 285.216 8.79233 285.7 8.367C286.183 7.92233 286.434 7.34233 286.454 6.627H288.397C288.377 7.92233 287.962 8.918 287.15 9.614C286.338 10.2907 285.226 10.629 283.815 10.629ZM296.759 12.63H299.543V19.155H308.301V12.63H311.085V28H308.301V21.562H299.543V28H296.759V12.63Z" fill="black"/>
<g clip-path="url(#clip0_2128_462)">
<path d="M0 1H9.39592C14.0344 1.00425 18.4815 2.84988 21.7599 6.1313C25.0383 9.41273 26.8799 13.8615 26.8799 18.5C26.8799 23.1385 25.0383 27.5873 21.7599 30.8687C18.4815 34.1501 14.0344 35.9957 9.39592 36H0V1Z" fill="#142F53"/>
<path d="M13.0994 10.7811V9.19636H9.38836V7.38698H7.80365V23.1859C7.37821 23.1708 6.95408 23.2415 6.55658 23.3939C6.15907 23.5462 5.79633 23.7771 5.49001 24.0727C5.18368 24.3683 4.94005 24.7226 4.77365 25.1145C4.60725 25.5063 4.52148 25.9276 4.52148 26.3533C4.52148 26.779 4.60725 27.2004 4.77365 27.5922C4.94005 27.9841 5.18368 28.3384 5.49001 28.634C5.79633 28.9296 6.15907 29.1605 6.55658 29.3128C6.95408 29.4652 7.37821 29.5359 7.80365 29.5208V30.8326H9.38836V29.5208C9.81379 29.5359 10.2379 29.4652 10.6354 29.3128C11.0329 29.1605 11.3957 28.9296 11.702 28.634C12.0083 28.3384 12.252 27.9841 12.4184 27.5922C12.5848 27.2004 12.6705 26.779 12.6705 26.3533C12.6705 25.9276 12.5848 25.5063 12.4184 25.1145C12.252 24.7226 12.0083 24.3683 11.702 24.0727C11.3957 23.7771 11.0329 23.5462 10.6354 23.3939C10.2379 23.2415 9.81379 23.1708 9.38836 23.1859V15.5312H11.4986V13.9465H9.38836V10.7811H13.0914H13.0994ZM6.23098 26.3553C6.23618 25.9367 6.40481 25.5366 6.70088 25.2405C6.99695 24.9445 7.39701 24.7758 7.81568 24.7706V27.9401C7.39701 27.9349 6.99695 27.7662 6.70088 27.4701C6.40481 27.1741 6.23618 26.774 6.23098 26.3553ZM10.9811 26.3553C10.9759 26.774 10.8073 27.1741 10.5112 27.4701C10.2151 27.7662 9.81506 27.9349 9.39638 27.9401V24.7706C9.81715 24.7727 10.2203 24.94 10.5189 25.2364C10.8176 25.5328 10.9879 25.9346 10.9931 26.3553H10.9811Z" fill="#E4BF9B"/>
</g>
<defs>
<clipPath id="clip0_2128_462">
<rect width="26.8959" height="35" fill="white" transform="translate(0 1)"/>
</clipPath>
</defs>
</svg>
