<svg width="27" height="25" viewBox="0 0 27 25" fill="none" xmlns="http://www.w3.org/2000/svg">
<path fill-rule="evenodd" clip-rule="evenodd" d="M3.43774 1.072C5.12267 -0.563102 7.8972 -0.272567 9.308 1.56794L11.0552 3.84357C12.2044 5.34084 12.1019 7.4327 10.7382 8.75564L10.4087 9.07726C10.3713 9.21227 10.3675 9.35403 10.3976 9.49076C10.4848 10.0421 10.9569 11.2097 12.934 13.1285C14.9111 15.0474 16.1156 15.5069 16.6887 15.5934C16.8332 15.6217 16.9823 15.6175 17.1249 15.5812L17.6897 15.0326C18.9026 13.8569 20.7633 13.6366 22.2641 14.4326L24.9085 15.8379C27.1749 17.0379 27.7467 20.0433 25.8915 21.8446L23.9241 23.7527C23.3039 24.354 22.4704 24.8553 21.4542 24.9486C18.9482 25.177 13.1098 24.8851 6.97236 18.9298C1.2447 13.3704 0.145409 8.52186 0.00557537 6.13272C-0.0636494 4.92463 0.520608 3.90303 1.26547 3.18142L3.43774 1.072ZM7.64661 2.78278C6.94467 1.86793 5.6377 1.79496 4.90115 2.50981L2.72749 4.61788C2.27061 5.06112 2.05186 5.5503 2.07955 6.01786C2.19031 7.91647 3.07639 12.2907 8.43715 17.4933C14.061 22.95 19.2542 23.1135 21.2617 22.9297C21.6716 22.8932 22.0786 22.6851 22.4593 22.3162L24.4253 20.4068C25.2256 19.6311 25.0497 18.2176 23.9172 17.6176L21.2728 16.2136C20.5418 15.8271 19.6862 15.9542 19.1545 16.4704L18.5246 17.0825L17.7908 16.3636C18.5246 17.0825 18.5232 17.0839 18.5218 17.0839L18.5204 17.0866L18.5163 17.0906L18.5066 17.0987L18.4858 17.1176C18.4274 17.1706 18.3644 17.2185 18.2975 17.2609C18.1868 17.3325 18.04 17.4122 17.8559 17.4785C17.4821 17.6149 16.9864 17.6879 16.3745 17.596C15.1741 17.4163 13.5833 16.6177 11.4692 14.5663C9.35646 12.515 8.5313 10.9718 8.34578 9.80157C8.25025 9.20428 8.3264 8.72051 8.46761 8.35565C8.54534 8.15034 8.65661 7.95867 8.79712 7.78809L8.84143 7.7408L8.86081 7.72053L8.86912 7.71242L8.87327 7.70837L8.87604 7.70566L9.27478 7.31918C9.86734 6.74217 9.95041 5.78678 9.39246 5.05841L7.64661 2.78278Z" fill="black"/>
</svg>
